<svg width="1024" height="753" viewBox="0 0 1024 753" fill="none" xmlns="http://www.w3.org/2000/svg">
<g clip-path="url(#clip0_175_1867)">
<rect width="1024" height="753" fill="#121214"/>
<g opacity="0.2" filter="url(#filter0_f_175_1867)">
<ellipse cx="543.5" cy="85" rx="670.5" ry="350" fill="#338AF3"/>
</g>
<path d="M64.0349 321C65.5302 321 66.6622 321.63 67.4308 322.891C68.2134 324.138 68.6047 325.953 68.6047 328.336C68.6047 330.719 68.2134 332.541 67.4308 333.802C66.6622 335.063 65.5302 335.693 64.0349 335.693C62.5536 335.693 61.4216 335.063 60.639 333.802C59.8564 332.541 59.4651 330.719 59.4651 328.336C59.4651 325.967 59.8564 324.152 60.639 322.891C61.4216 321.63 62.5536 321 64.0349 321ZM60.9534 328.336C60.9534 330.026 61.1072 331.35 61.4146 332.306L66.0683 323.099C65.5791 322.448 64.9013 322.122 64.0349 322.122C63.0706 322.122 62.316 322.635 61.771 323.66C61.2259 324.672 60.9534 326.23 60.9534 328.336ZM64.0349 334.55C65.0131 334.55 65.7748 334.044 66.3198 333.033C66.8648 332.008 67.1373 330.442 67.1373 328.336C67.1373 326.549 66.9627 325.163 66.6133 324.18L61.9596 333.469C62.4627 334.19 63.1545 334.55 64.0349 334.55Z" fill="url(#paint0_linear_175_1867)" fill-opacity="0.6"/>
<path d="M65.2926 358.135H68.3741V359.236H60.3874V358.135H63.9511V346.455L60.5551 348.471L59.9682 347.536L64.1607 344.959H65.2926V358.135Z" fill="url(#paint1_linear_175_1867)" fill-opacity="0.6"/>
<path d="M64.0349 368.502C65.5302 368.502 66.6622 369.133 67.4308 370.393C68.2134 371.64 68.6047 373.455 68.6047 375.838C68.6047 378.221 68.2134 380.043 67.4308 381.304C66.6622 382.565 65.5302 383.195 64.0349 383.195C62.5536 383.195 61.4216 382.565 60.639 381.304C59.8564 380.043 59.4651 378.221 59.4651 375.838C59.4651 373.469 59.8564 371.654 60.639 370.393C61.4216 369.133 62.5536 368.502 64.0349 368.502ZM60.9534 375.838C60.9534 377.529 61.1072 378.852 61.4146 379.808L66.0683 370.601C65.5791 369.95 64.9013 369.624 64.0349 369.624C63.0706 369.624 62.316 370.137 61.771 371.162C61.2259 372.174 60.9534 373.732 60.9534 375.838ZM64.0349 382.052C65.0131 382.052 65.7748 381.546 66.3198 380.535C66.8648 379.51 67.1373 377.944 67.1373 375.838C67.1373 374.051 66.9627 372.665 66.6133 371.682L61.9596 380.971C62.4627 381.692 63.1545 382.052 64.0349 382.052Z" fill="url(#paint2_linear_175_1867)" fill-opacity="0.6"/>
<path d="M65.2926 405.637H68.3741V406.738H60.3874V405.637H63.9511V393.957L60.5551 395.973L59.9682 395.038L64.1607 392.461H65.2926V405.637Z" fill="url(#paint3_linear_175_1867)" fill-opacity="0.6"/>
<path d="M65.2926 429.388H68.3741V430.489H60.3874V429.388H63.9511V417.708L60.5551 419.724L59.9682 418.789L64.1607 416.212H65.2926V429.388Z" fill="url(#paint4_linear_175_1867)" fill-opacity="0.6"/>
<path d="M64.0349 439.755C65.5302 439.755 66.6622 440.386 67.4308 441.646C68.2134 442.893 68.6047 444.708 68.6047 447.091C68.6047 449.474 68.2134 451.296 67.4308 452.557C66.6622 453.818 65.5302 454.448 64.0349 454.448C62.5536 454.448 61.4216 453.818 60.639 452.557C59.8564 451.296 59.4651 449.474 59.4651 447.091C59.4651 444.722 59.8564 442.907 60.639 441.646C61.4216 440.386 62.5536 439.755 64.0349 439.755ZM60.9534 447.091C60.9534 448.782 61.1072 450.105 61.4146 451.061L66.0683 441.854C65.5791 441.203 64.9013 440.878 64.0349 440.878C63.0706 440.878 62.316 441.39 61.771 442.415C61.2259 443.427 60.9534 444.985 60.9534 447.091ZM64.0349 453.305C65.0131 453.305 65.7748 452.8 66.3198 451.788C66.8648 450.763 67.1373 449.197 67.1373 447.091C67.1373 445.304 66.9627 443.919 66.6133 442.935L61.9596 452.225C62.4627 452.945 63.1545 453.305 64.0349 453.305Z" fill="url(#paint5_linear_175_1867)" fill-opacity="0.6"/>
<path d="M65.2926 476.89H68.3741V477.992H60.3874V476.89H63.9511V465.21L60.5551 467.226L59.9682 466.291L64.1607 463.714H65.2926V476.89Z" fill="url(#paint6_linear_175_1867)" fill-opacity="0.6"/>
<path d="M64.0349 487.257C65.5302 487.257 66.6622 487.888 67.4308 489.149C68.2134 490.396 68.6047 492.211 68.6047 494.594C68.6047 496.977 68.2134 498.798 67.4308 500.059C66.6622 501.32 65.5302 501.95 64.0349 501.95C62.5536 501.95 61.4216 501.32 60.639 500.059C59.8564 498.798 59.4651 496.977 59.4651 494.594C59.4651 492.224 59.8564 490.409 60.639 489.149C61.4216 487.888 62.5536 487.257 64.0349 487.257ZM60.9534 494.594C60.9534 496.284 61.1072 497.607 61.4146 498.563L66.0683 489.356C65.5791 488.705 64.9013 488.38 64.0349 488.38C63.0706 488.38 62.316 488.892 61.771 489.918C61.2259 490.929 60.9534 492.488 60.9534 494.594ZM64.0349 500.807C65.0131 500.807 65.7748 500.302 66.3198 499.29C66.8648 498.265 67.1373 496.699 67.1373 494.594C67.1373 492.806 66.9627 491.421 66.6133 490.437L61.9596 499.727C62.4627 500.447 63.1545 500.807 64.0349 500.807Z" fill="url(#paint7_linear_175_1867)" fill-opacity="0.6"/>
<path d="M64.0349 511.008C65.5302 511.008 66.6622 511.639 67.4308 512.9C68.2134 514.147 68.6047 515.962 68.6047 518.345C68.6047 520.728 68.2134 522.549 67.4308 523.81C66.6622 525.071 65.5302 525.701 64.0349 525.701C62.5536 525.701 61.4216 525.071 60.639 523.81C59.8564 522.549 59.4651 520.728 59.4651 518.345C59.4651 515.975 59.8564 514.16 60.639 512.9C61.4216 511.639 62.5536 511.008 64.0349 511.008ZM60.9534 518.345C60.9534 520.035 61.1072 521.358 61.4146 522.314L66.0683 513.107C65.5791 512.456 64.9013 512.131 64.0349 512.131C63.0706 512.131 62.316 512.643 61.771 513.669C61.2259 514.68 60.9534 516.239 60.9534 518.345ZM64.0349 524.558C65.0131 524.558 65.7748 524.053 66.3198 523.041C66.8648 522.016 67.1373 520.451 67.1373 518.345C67.1373 516.557 66.9627 515.172 66.6133 514.188L61.9596 523.478C62.4627 524.198 63.1545 524.558 64.0349 524.558Z" fill="url(#paint8_linear_175_1867)" fill-opacity="0.6"/>
<path d="M65.2926 548.143H68.3741V549.245H60.3874V548.143H63.9511V536.464L60.5551 538.48L59.9682 537.544L64.1607 534.967H65.2926V548.143Z" fill="url(#paint9_linear_175_1867)" fill-opacity="0.6"/>
<path d="M64.0349 558.511C65.5302 558.511 66.6622 559.141 67.4308 560.402C68.2134 561.649 68.6047 563.464 68.6047 565.847C68.6047 568.23 68.2134 570.052 67.4308 571.312C66.6622 572.573 65.5302 573.204 64.0349 573.204C62.5536 573.204 61.4216 572.573 60.639 571.312C59.8564 570.052 59.4651 568.23 59.4651 565.847C59.4651 563.478 59.8564 561.663 60.639 560.402C61.4216 559.141 62.5536 558.511 64.0349 558.511ZM60.9534 565.847C60.9534 567.537 61.1072 568.86 61.4146 569.816L66.0683 560.61C65.5791 559.958 64.9013 559.633 64.0349 559.633C63.0706 559.633 62.316 560.145 61.771 561.171C61.2259 562.182 60.9534 563.741 60.9534 565.847ZM64.0349 572.061C65.0131 572.061 65.7748 571.555 66.3198 570.543C66.8648 569.518 67.1373 567.953 67.1373 565.847C67.1373 564.059 66.9627 562.674 66.6133 561.69L61.9596 570.98C62.4627 571.7 63.1545 572.061 64.0349 572.061Z" fill="url(#paint10_linear_175_1867)" fill-opacity="0.6"/>
<path d="M65.2926 595.645H68.3741V596.747H60.3874V595.645H63.9511V583.966L60.5551 585.982L59.9682 585.046L64.1607 582.469H65.2926V595.645Z" fill="url(#paint11_linear_175_1867)" fill-opacity="0.6"/>
<path d="M65.2926 619.396H68.3741V620.498H60.3874V619.396H63.9511V607.717L60.5551 609.733L59.9682 608.798L64.1607 606.221H65.2926V619.396Z" fill="url(#paint12_linear_175_1867)" fill-opacity="0.6"/>
<path d="M102.965 368.502C104.46 368.502 105.592 369.133 106.361 370.393C107.144 371.64 107.535 373.455 107.535 375.838C107.535 378.221 107.144 380.043 106.361 381.304C105.592 382.565 104.46 383.195 102.965 383.195C101.484 383.195 100.352 382.565 99.5692 381.304C98.7866 380.043 98.3953 378.221 98.3953 375.838C98.3953 373.469 98.7866 371.654 99.5692 370.393C100.352 369.133 101.484 368.502 102.965 368.502ZM99.8836 375.838C99.8836 377.529 100.037 378.852 100.345 379.808L104.998 370.601C104.509 369.95 103.832 369.624 102.965 369.624C102.001 369.624 101.246 370.137 100.701 371.162C100.156 372.174 99.8836 373.732 99.8836 375.838ZM102.965 382.052C103.943 382.052 104.705 381.546 105.25 380.535C105.795 379.51 106.068 377.944 106.068 375.838C106.068 374.051 105.893 372.665 105.543 371.682L100.89 380.971C101.393 381.692 102.085 382.052 102.965 382.052Z" fill="url(#paint13_linear_175_1867)" fill-opacity="0.6"/>
<path d="M104.223 405.637H107.304V406.738H99.3176V405.637H102.881V393.957L99.4853 395.973L98.8984 395.038L103.091 392.461H104.223V405.637Z" fill="url(#paint14_linear_175_1867)" fill-opacity="0.6"/>
<path d="M102.965 416.004C104.46 416.004 105.592 416.635 106.361 417.895C107.144 419.142 107.535 420.957 107.535 423.34C107.535 425.723 107.144 427.545 106.361 428.806C105.592 430.067 104.46 430.697 102.965 430.697C101.484 430.697 100.352 430.067 99.5692 428.806C98.7866 427.545 98.3953 425.723 98.3953 423.34C98.3953 420.971 98.7866 419.156 99.5692 417.895C100.352 416.635 101.484 416.004 102.965 416.004ZM99.8836 423.34C99.8836 425.031 100.037 426.354 100.345 427.31L104.998 418.103C104.509 417.452 103.832 417.126 102.965 417.126C102.001 417.126 101.246 417.639 100.701 418.664C100.156 419.676 99.8836 421.234 99.8836 423.34ZM102.965 429.554C103.943 429.554 104.705 429.049 105.25 428.037C105.795 427.012 106.068 425.446 106.068 423.34C106.068 421.553 105.893 420.168 105.543 419.184L100.89 428.474C101.393 429.194 102.085 429.554 102.965 429.554Z" fill="url(#paint15_linear_175_1867)" fill-opacity="0.6"/>
<path d="M102.965 439.755C104.46 439.755 105.592 440.386 106.361 441.646C107.144 442.893 107.535 444.708 107.535 447.091C107.535 449.474 107.144 451.296 106.361 452.557C105.592 453.818 104.46 454.448 102.965 454.448C101.484 454.448 100.352 453.818 99.5692 452.557C98.7866 451.296 98.3953 449.474 98.3953 447.091C98.3953 444.722 98.7866 442.907 99.5692 441.646C100.352 440.386 101.484 439.755 102.965 439.755ZM99.8836 447.091C99.8836 448.782 100.037 450.105 100.345 451.061L104.998 441.854C104.509 441.203 103.832 440.878 102.965 440.878C102.001 440.878 101.246 441.39 100.701 442.415C100.156 443.427 99.8836 444.985 99.8836 447.091ZM102.965 453.305C103.943 453.305 104.705 452.8 105.25 451.788C105.795 450.763 106.068 449.197 106.068 447.091C106.068 445.304 105.893 443.919 105.543 442.935L100.89 452.225C101.393 452.945 102.085 453.305 102.965 453.305Z" fill="url(#paint16_linear_175_1867)" fill-opacity="0.6"/>
<path d="M104.223 476.89H107.304V477.992H99.3176V476.89H102.881V465.21L99.4853 467.226L98.8984 466.291L103.091 463.714H104.223V476.89Z" fill="url(#paint17_linear_175_1867)" fill-opacity="0.6"/>
<path d="M102.965 487.257C104.46 487.257 105.592 487.888 106.361 489.149C107.144 490.396 107.535 492.211 107.535 494.594C107.535 496.977 107.144 498.798 106.361 500.059C105.592 501.32 104.46 501.95 102.965 501.95C101.484 501.95 100.352 501.32 99.5692 500.059C98.7866 498.798 98.3953 496.977 98.3953 494.594C98.3953 492.224 98.7866 490.409 99.5692 489.149C100.352 487.888 101.484 487.257 102.965 487.257ZM99.8836 494.594C99.8836 496.284 100.037 497.607 100.345 498.563L104.998 489.356C104.509 488.705 103.832 488.38 102.965 488.38C102.001 488.38 101.246 488.892 100.701 489.918C100.156 490.929 99.8836 492.488 99.8836 494.594ZM102.965 500.807C103.943 500.807 104.705 500.302 105.25 499.29C105.795 498.265 106.068 496.699 106.068 494.594C106.068 492.806 105.893 491.421 105.543 490.437L100.89 499.727C101.393 500.447 102.085 500.807 102.965 500.807Z" fill="url(#paint18_linear_175_1867)" fill-opacity="0.6"/>
<path d="M104.223 524.392H107.304V525.494H99.3176V524.392H102.881V512.713L99.4853 514.728L98.8984 513.793L103.091 511.216H104.223V524.392Z" fill="url(#paint19_linear_175_1867)" fill-opacity="0.6"/>
<path d="M102.965 534.76C104.46 534.76 105.592 535.39 106.361 536.651C107.144 537.898 107.535 539.713 107.535 542.096C107.535 544.479 107.144 546.301 106.361 547.561C105.592 548.822 104.46 549.453 102.965 549.453C101.484 549.453 100.352 548.822 99.5692 547.561C98.7866 546.301 98.3953 544.479 98.3953 542.096C98.3953 539.726 98.7866 537.911 99.5692 536.651C100.352 535.39 101.484 534.76 102.965 534.76ZM99.8836 542.096C99.8836 543.786 100.037 545.109 100.345 546.065L104.998 536.859C104.509 536.207 103.832 535.882 102.965 535.882C102.001 535.882 101.246 536.394 100.701 537.42C100.156 538.431 99.8836 539.99 99.8836 542.096ZM102.965 548.31C103.943 548.31 104.705 547.804 105.25 546.792C105.795 545.767 106.068 544.202 106.068 542.096C106.068 540.308 105.893 538.923 105.543 537.939L100.89 547.229C101.393 547.949 102.085 548.31 102.965 548.31Z" fill="url(#paint20_linear_175_1867)" fill-opacity="0.6"/>
<path d="M102.965 558.511C104.46 558.511 105.592 559.141 106.361 560.402C107.144 561.649 107.535 563.464 107.535 565.847C107.535 568.23 107.144 570.052 106.361 571.312C105.592 572.573 104.46 573.204 102.965 573.204C101.484 573.204 100.352 572.573 99.5692 571.312C98.7866 570.052 98.3953 568.23 98.3953 565.847C98.3953 563.478 98.7866 561.663 99.5692 560.402C100.352 559.141 101.484 558.511 102.965 558.511ZM99.8836 565.847C99.8836 567.537 100.037 568.86 100.345 569.816L104.998 560.61C104.509 559.958 103.832 559.633 102.965 559.633C102.001 559.633 101.246 560.145 100.701 561.171C100.156 562.182 99.8836 563.741 99.8836 565.847ZM102.965 572.061C103.943 572.061 104.705 571.555 105.25 570.543C105.795 569.518 106.068 567.953 106.068 565.847C106.068 564.059 105.893 562.674 105.543 561.69L100.89 570.98C101.393 571.7 102.085 572.061 102.965 572.061Z" fill="url(#paint21_linear_175_1867)" fill-opacity="0.6"/>
<path d="M104.223 595.645H107.304V596.747H99.3176V595.645H102.881V583.966L99.4853 585.982L98.8984 585.046L103.091 582.469H104.223V595.645Z" fill="url(#paint22_linear_175_1867)" fill-opacity="0.6"/>
<path d="M102.965 606.013C104.46 606.013 105.592 606.643 106.361 607.904C107.144 609.151 107.535 610.966 107.535 613.349C107.535 615.732 107.144 617.554 106.361 618.815C105.592 620.075 104.46 620.706 102.965 620.706C101.484 620.706 100.352 620.075 99.5692 618.815C98.7866 617.554 98.3953 615.732 98.3953 613.349C98.3953 610.98 98.7866 609.165 99.5692 607.904C100.352 606.643 101.484 606.013 102.965 606.013ZM99.8836 613.349C99.8836 615.039 100.037 616.362 100.345 617.318L104.998 608.112C104.509 607.461 103.832 607.135 102.965 607.135C102.001 607.135 101.246 607.648 100.701 608.673C100.156 609.684 99.8836 611.243 99.8836 613.349ZM102.965 619.563C103.943 619.563 104.705 619.057 105.25 618.046C105.795 617.02 106.068 615.455 106.068 613.349C106.068 611.562 105.893 610.176 105.543 609.192L100.89 618.482C101.393 619.202 102.085 619.563 102.965 619.563Z" fill="url(#paint23_linear_175_1867)" fill-opacity="0.6"/>
<path d="M104.223 643.148H107.304V644.249H99.3176V643.148H102.881V631.468L99.4853 633.484L98.8984 632.549L103.091 629.972H104.223V643.148Z" fill="url(#paint24_linear_175_1867)" fill-opacity="0.6"/>
<path d="M104.223 666.899H107.304V668H99.3176V666.899H102.881V655.219L99.4853 657.235L98.8984 656.3L103.091 653.723H104.223V666.899Z" fill="url(#paint25_linear_175_1867)" fill-opacity="0.6"/>
<path d="M44.5698 392.253C46.0651 392.253 47.1971 392.884 47.9657 394.144C48.7483 395.391 49.1396 397.206 49.1396 399.589C49.1396 401.972 48.7483 403.794 47.9657 405.055C47.1971 406.316 46.0651 406.946 44.5698 406.946C43.0885 406.946 41.9565 406.316 41.1739 405.055C40.3913 403.794 40 401.972 40 399.589C40 397.22 40.3913 395.405 41.1739 394.144C41.9565 392.884 43.0885 392.253 44.5698 392.253ZM41.4883 399.589C41.4883 401.28 41.6421 402.603 41.9495 403.559L46.6032 394.352C46.114 393.701 45.4363 393.375 44.5698 393.375C43.6055 393.375 42.8509 393.888 42.3059 394.913C41.7608 395.925 41.4883 397.483 41.4883 399.589ZM44.5698 405.803C45.5481 405.803 46.3097 405.297 46.8547 404.286C47.3997 403.261 47.6722 401.695 47.6722 399.589C47.6722 397.802 47.4976 396.417 47.1482 395.433L42.4945 404.722C42.9976 405.443 43.6894 405.803 44.5698 405.803Z" fill="url(#paint26_linear_175_1867)" fill-opacity="0.6"/>
<path d="M44.5698 416.004C46.0651 416.004 47.1971 416.635 47.9657 417.895C48.7483 419.142 49.1396 420.957 49.1396 423.34C49.1396 425.723 48.7483 427.545 47.9657 428.806C47.1971 430.067 46.0651 430.697 44.5698 430.697C43.0885 430.697 41.9565 430.067 41.1739 428.806C40.3913 427.545 40 425.723 40 423.34C40 420.971 40.3913 419.156 41.1739 417.895C41.9565 416.635 43.0885 416.004 44.5698 416.004ZM41.4883 423.34C41.4883 425.031 41.6421 426.354 41.9495 427.31L46.6032 418.103C46.114 417.452 45.4363 417.126 44.5698 417.126C43.6055 417.126 42.8509 417.639 42.3059 418.664C41.7608 419.676 41.4883 421.234 41.4883 423.34ZM44.5698 429.554C45.5481 429.554 46.3097 429.049 46.8547 428.037C47.3997 427.012 47.6722 425.446 47.6722 423.34C47.6722 421.553 47.4976 420.168 47.1482 419.184L42.4945 428.474C42.9976 429.194 43.6894 429.554 44.5698 429.554Z" fill="url(#paint27_linear_175_1867)" fill-opacity="0.6"/>
<path d="M45.8276 453.139H48.909V454.24H40.9223V453.139H44.486V441.459L41.09 443.475L40.5031 442.54L44.6956 439.963H45.8276V453.139Z" fill="url(#paint28_linear_175_1867)" fill-opacity="0.6"/>
<path d="M44.5698 463.506C46.0651 463.506 47.1971 464.137 47.9657 465.398C48.7483 466.644 49.1396 468.459 49.1396 470.842C49.1396 473.225 48.7483 475.047 47.9657 476.308C47.1971 477.569 46.0651 478.199 44.5698 478.199C43.0885 478.199 41.9565 477.569 41.1739 476.308C40.3913 475.047 40 473.225 40 470.842C40 468.473 40.3913 466.658 41.1739 465.398C41.9565 464.137 43.0885 463.506 44.5698 463.506ZM41.4883 470.842C41.4883 472.533 41.6421 473.856 41.9495 474.812L46.6032 465.605C46.114 464.954 45.4363 464.629 44.5698 464.629C43.6055 464.629 42.8509 465.141 42.3059 466.166C41.7608 467.178 41.4883 468.737 41.4883 470.842ZM44.5698 477.056C45.5481 477.056 46.3097 476.551 46.8547 475.539C47.3997 474.514 47.6722 472.948 47.6722 470.842C47.6722 469.055 47.4976 467.67 47.1482 466.686L42.4945 475.976C42.9976 476.696 43.6894 477.056 44.5698 477.056Z" fill="url(#paint29_linear_175_1867)" fill-opacity="0.6"/>
<path d="M45.8276 500.641H48.909V501.743H40.9223V500.641H44.486V488.962L41.09 490.977L40.5031 490.042L44.6956 487.465H45.8276V500.641Z" fill="url(#paint30_linear_175_1867)" fill-opacity="0.6"/>
<path d="M45.8276 524.392H48.909V525.494H40.9223V524.392H44.486V512.713L41.09 514.728L40.5031 513.793L44.6956 511.216H45.8276V524.392Z" fill="url(#paint31_linear_175_1867)" fill-opacity="0.6"/>
<path d="M84.7577 358.135H87.8392V359.236H79.8525V358.135H83.4162V346.455L80.0202 348.471L79.4333 347.536L83.6258 344.959H84.7577V358.135Z" fill="url(#paint32_linear_175_1867)" fill-opacity="0.6"/>
<path d="M83.5 368.502C84.9953 368.502 86.1273 369.133 86.8959 370.393C87.6785 371.64 88.0698 373.455 88.0698 375.838C88.0698 378.221 87.6785 380.043 86.8959 381.304C86.1273 382.565 84.9953 383.195 83.5 383.195C82.0187 383.195 80.8867 382.565 80.1041 381.304C79.3215 380.043 78.9302 378.221 78.9302 375.838C78.9302 373.469 79.3215 371.654 80.1041 370.393C80.8867 369.133 82.0187 368.502 83.5 368.502ZM80.4185 375.838C80.4185 377.529 80.5723 378.852 80.8797 379.808L85.5334 370.601C85.0442 369.95 84.3664 369.624 83.5 369.624C82.5357 369.624 81.7811 370.137 81.2361 371.162C80.691 372.174 80.4185 373.732 80.4185 375.838ZM83.5 382.052C84.4782 382.052 85.2399 381.546 85.7849 380.535C86.3299 379.51 86.6024 377.944 86.6024 375.838C86.6024 374.051 86.4277 372.665 86.0784 371.682L81.4247 380.971C81.9278 381.692 82.6196 382.052 83.5 382.052Z" fill="url(#paint33_linear_175_1867)" fill-opacity="0.6"/>
<path d="M84.7577 405.637H87.8392V406.738H79.8525V405.637H83.4162V393.957L80.0202 395.973L79.4333 395.038L83.6258 392.461H84.7577V405.637Z" fill="url(#paint34_linear_175_1867)" fill-opacity="0.6"/>
<path d="M84.7577 429.388H87.8392V430.489H79.8525V429.388H83.4162V417.708L80.0202 419.724L79.4333 418.789L83.6258 416.212H84.7577V429.388Z" fill="url(#paint35_linear_175_1867)" fill-opacity="0.6"/>
<path d="M83.5 439.755C84.9953 439.755 86.1273 440.386 86.8959 441.646C87.6785 442.893 88.0698 444.708 88.0698 447.091C88.0698 449.474 87.6785 451.296 86.8959 452.557C86.1273 453.818 84.9953 454.448 83.5 454.448C82.0187 454.448 80.8867 453.818 80.1041 452.557C79.3215 451.296 78.9302 449.474 78.9302 447.091C78.9302 444.722 79.3215 442.907 80.1041 441.646C80.8867 440.386 82.0187 439.755 83.5 439.755ZM80.4185 447.091C80.4185 448.782 80.5723 450.105 80.8797 451.061L85.5334 441.854C85.0442 441.203 84.3664 440.878 83.5 440.878C82.5357 440.878 81.7811 441.39 81.2361 442.415C80.691 443.427 80.4185 444.985 80.4185 447.091ZM83.5 453.305C84.4782 453.305 85.2399 452.8 85.7849 451.788C86.3299 450.763 86.6024 449.197 86.6024 447.091C86.6024 445.304 86.4277 443.919 86.0784 442.935L81.4247 452.225C81.9278 452.945 82.6196 453.305 83.5 453.305Z" fill="url(#paint36_linear_175_1867)" fill-opacity="0.6"/>
<path d="M84.7577 476.89H87.8392V477.992H79.8525V476.89H83.4162V465.21L80.0202 467.226L79.4333 466.291L83.6258 463.714H84.7577V476.89Z" fill="url(#paint37_linear_175_1867)" fill-opacity="0.6"/>
<path d="M84.7577 500.641H87.8392V501.743H79.8525V500.641H83.4162V488.962L80.0202 490.977L79.4333 490.042L83.6258 487.465H84.7577V500.641Z" fill="url(#paint38_linear_175_1867)" fill-opacity="0.6"/>
<path d="M83.5 511.008C84.9953 511.008 86.1273 511.639 86.8959 512.9C87.6785 514.147 88.0698 515.962 88.0698 518.345C88.0698 520.728 87.6785 522.549 86.8959 523.81C86.1273 525.071 84.9953 525.701 83.5 525.701C82.0187 525.701 80.8867 525.071 80.1041 523.81C79.3215 522.549 78.9302 520.728 78.9302 518.345C78.9302 515.975 79.3215 514.16 80.1041 512.9C80.8867 511.639 82.0187 511.008 83.5 511.008ZM80.4185 518.345C80.4185 520.035 80.5723 521.358 80.8797 522.314L85.5334 513.107C85.0442 512.456 84.3664 512.131 83.5 512.131C82.5357 512.131 81.7811 512.643 81.2361 513.669C80.691 514.68 80.4185 516.239 80.4185 518.345ZM83.5 524.558C84.4782 524.558 85.2399 524.053 85.7849 523.041C86.3299 522.016 86.6024 520.451 86.6024 518.345C86.6024 516.557 86.4277 515.172 86.0784 514.188L81.4247 523.478C81.9278 524.198 82.6196 524.558 83.5 524.558Z" fill="url(#paint39_linear_175_1867)" fill-opacity="0.6"/>
<path d="M84.7577 548.143H87.8392V549.245H79.8525V548.143H83.4162V536.464L80.0202 538.48L79.4333 537.544L83.6258 534.967H84.7577V548.143Z" fill="url(#paint40_linear_175_1867)" fill-opacity="0.6"/>
<path d="M83.5 558.511C84.9953 558.511 86.1273 559.141 86.8959 560.402C87.6785 561.649 88.0698 563.464 88.0698 565.847C88.0698 568.23 87.6785 570.052 86.8959 571.312C86.1273 572.573 84.9953 573.204 83.5 573.204C82.0187 573.204 80.8867 572.573 80.1041 571.312C79.3215 570.052 78.9302 568.23 78.9302 565.847C78.9302 563.478 79.3215 561.663 80.1041 560.402C80.8867 559.141 82.0187 558.511 83.5 558.511ZM80.4185 565.847C80.4185 567.537 80.5723 568.86 80.8797 569.816L85.5334 560.61C85.0442 559.958 84.3664 559.633 83.5 559.633C82.5357 559.633 81.7811 560.145 81.2361 561.171C80.691 562.182 80.4185 563.741 80.4185 565.847ZM83.5 572.061C84.4782 572.061 85.2399 571.555 85.7849 570.543C86.3299 569.518 86.6024 567.953 86.6024 565.847C86.6024 564.059 86.4277 562.674 86.0784 561.69L81.4247 570.98C81.9278 571.7 82.6196 572.061 83.5 572.061Z" fill="url(#paint41_linear_175_1867)" fill-opacity="0.6"/>
<path d="M122.43 344.751C123.926 344.751 125.057 345.381 125.826 346.642C126.609 347.889 127 349.704 127 352.087C127 354.47 126.609 356.292 125.826 357.553C125.057 358.814 123.926 359.444 122.43 359.444C120.949 359.444 119.817 358.814 119.034 357.553C118.252 356.292 117.86 354.47 117.86 352.087C117.86 349.718 118.252 347.903 119.034 346.642C119.817 345.381 120.949 344.751 122.43 344.751ZM119.349 352.087C119.349 353.777 119.502 355.101 119.81 356.057L124.464 346.85C123.974 346.199 123.297 345.873 122.43 345.873C121.466 345.873 120.711 346.386 120.166 347.411C119.621 348.423 119.349 349.981 119.349 352.087ZM122.43 358.301C123.408 358.301 124.17 357.795 124.715 356.784C125.26 355.759 125.533 354.193 125.533 352.087C125.533 350.3 125.358 348.914 125.009 347.931L120.355 357.22C120.858 357.941 121.55 358.301 122.43 358.301Z" fill="url(#paint42_linear_175_1867)" fill-opacity="0.6"/>
<path d="M123.688 381.886H126.769V382.987H118.783V381.886H122.346V370.206L118.95 372.222L118.363 371.287L122.556 368.71H123.688V381.886Z" fill="url(#paint43_linear_175_1867)" fill-opacity="0.6"/>
<path d="M123.688 405.637H126.769V406.738H118.783V405.637H122.346V393.957L118.95 395.973L118.363 395.038L122.556 392.461H123.688V405.637Z" fill="url(#paint44_linear_175_1867)" fill-opacity="0.6"/>
<path d="M122.43 416.004C123.926 416.004 125.057 416.635 125.826 417.895C126.609 419.142 127 420.957 127 423.34C127 425.723 126.609 427.545 125.826 428.806C125.057 430.067 123.926 430.697 122.43 430.697C120.949 430.697 119.817 430.067 119.034 428.806C118.252 427.545 117.86 425.723 117.86 423.34C117.86 420.971 118.252 419.156 119.034 417.895C119.817 416.635 120.949 416.004 122.43 416.004ZM119.349 423.34C119.349 425.031 119.502 426.354 119.81 427.31L124.464 418.103C123.974 417.452 123.297 417.126 122.43 417.126C121.466 417.126 120.711 417.639 120.166 418.664C119.621 419.676 119.349 421.234 119.349 423.34ZM122.43 429.554C123.408 429.554 124.17 429.049 124.715 428.037C125.26 427.012 125.533 425.446 125.533 423.34C125.533 421.553 125.358 420.168 125.009 419.184L120.355 428.474C120.858 429.194 121.55 429.554 122.43 429.554Z" fill="url(#paint45_linear_175_1867)" fill-opacity="0.6"/>
<path d="M122.43 439.755C123.926 439.755 125.057 440.386 125.826 441.646C126.609 442.893 127 444.708 127 447.091C127 449.474 126.609 451.296 125.826 452.557C125.057 453.818 123.926 454.448 122.43 454.448C120.949 454.448 119.817 453.818 119.034 452.557C118.252 451.296 117.86 449.474 117.86 447.091C117.86 444.722 118.252 442.907 119.034 441.646C119.817 440.386 120.949 439.755 122.43 439.755ZM119.349 447.091C119.349 448.782 119.502 450.105 119.81 451.061L124.464 441.854C123.974 441.203 123.297 440.878 122.43 440.878C121.466 440.878 120.711 441.39 120.166 442.415C119.621 443.427 119.349 444.985 119.349 447.091ZM122.43 453.305C123.408 453.305 124.17 452.8 124.715 451.788C125.26 450.763 125.533 449.197 125.533 447.091C125.533 445.304 125.358 443.919 125.009 442.935L120.355 452.225C120.858 452.945 121.55 453.305 122.43 453.305Z" fill="url(#paint46_linear_175_1867)" fill-opacity="0.6"/>
<g opacity="0.6">
<path d="M950.93 21C952.356 21 953.436 21.605 954.17 22.8149C954.916 24.0115 955.29 25.7532 955.29 28.0401C955.29 30.327 954.916 32.0754 954.17 33.2853C953.436 34.4952 952.356 35.1002 950.93 35.1002C949.517 35.1002 948.437 34.4952 947.69 33.2853C946.943 32.0754 946.57 30.327 946.57 28.0401C946.57 25.7665 946.943 24.0248 947.69 22.8149C948.437 21.605 949.517 21 950.93 21ZM947.99 28.0401C947.99 29.6622 948.137 30.932 948.43 31.8494L952.87 23.0143C952.403 22.3894 951.756 22.077 950.93 22.077C950.01 22.077 949.29 22.5689 948.77 23.5528C948.25 24.5234 947.99 26.0192 947.99 28.0401ZM950.93 34.0033C951.863 34.0033 952.59 33.518 953.11 32.5474C953.63 31.5635 953.89 30.0611 953.89 28.0401C953.89 26.325 953.723 24.9954 953.39 24.0514L948.95 32.9662C949.43 33.6576 950.09 34.0033 950.93 34.0033Z" fill="url(#paint47_linear_175_1867)"/>
<path d="M952.13 56.6365H955.07V57.6936H947.45V56.6365H950.85V45.4282L947.61 47.3627L947.05 46.4653L951.05 43.9922H952.13V56.6365Z" fill="url(#paint48_linear_175_1867)"/>
<path d="M950.93 66.5856C952.356 66.5856 953.436 67.1906 954.17 68.4005C954.916 69.5971 955.29 71.3389 955.29 73.6257C955.29 75.9126 954.916 77.661 954.17 78.8709C953.436 80.0808 952.356 80.6858 950.93 80.6858C949.517 80.6858 948.437 80.0808 947.69 78.8709C946.943 77.661 946.57 75.9126 946.57 73.6257C946.57 71.3522 946.943 69.6104 947.69 68.4005C948.437 67.1906 949.517 66.5856 950.93 66.5856ZM947.99 73.6257C947.99 75.2478 948.137 76.5176 948.43 77.435L952.87 68.5999C952.403 67.975 951.756 67.6626 950.93 67.6626C950.01 67.6626 949.29 68.1545 948.77 69.1384C948.25 70.109 947.99 71.6048 947.99 73.6257ZM950.93 79.5889C951.863 79.5889 952.59 79.1036 953.11 78.133C953.63 77.1491 953.89 75.6467 953.89 73.6257C953.89 71.9106 953.723 70.581 953.39 69.637L948.95 78.5518C949.43 79.2432 950.09 79.5889 950.93 79.5889Z" fill="url(#paint49_linear_175_1867)"/>
<path d="M952.13 102.222H955.07V103.279H947.45V102.222H950.85V91.0138L947.61 92.9483L947.05 92.0509L951.05 89.5778H952.13V102.222Z" fill="url(#paint50_linear_175_1867)"/>
<path d="M952.13 125.015H955.07V126.072H947.45V125.015H950.85V113.807L947.61 115.741L947.05 114.844L951.05 112.371H952.13V125.015Z" fill="url(#paint51_linear_175_1867)"/>
<path d="M950.93 134.964C952.356 134.964 953.436 135.569 954.17 136.779C954.916 137.976 955.29 139.717 955.29 142.004C955.29 144.291 954.916 146.039 954.17 147.249C953.436 148.459 952.356 149.064 950.93 149.064C949.517 149.064 948.437 148.459 947.69 147.249C946.943 146.039 946.57 144.291 946.57 142.004C946.57 139.731 946.943 137.989 947.69 136.779C948.437 135.569 949.517 134.964 950.93 134.964ZM947.99 142.004C947.99 143.626 948.137 144.896 948.43 145.813L952.87 136.978C952.403 136.353 951.756 136.041 950.93 136.041C950.01 136.041 949.29 136.533 948.77 137.517C948.25 138.487 947.99 139.983 947.99 142.004ZM950.93 147.967C951.863 147.967 952.59 147.482 953.11 146.511C953.63 145.528 953.89 144.025 953.89 142.004C953.89 140.289 953.723 138.959 953.39 138.015L948.95 146.93C949.43 147.622 950.09 147.967 950.93 147.967Z" fill="url(#paint52_linear_175_1867)"/>
<path d="M952.13 170.601H955.07V171.658H947.45V170.601H950.85V159.392L947.61 161.327L947.05 160.429L951.05 157.956H952.13V170.601Z" fill="url(#paint53_linear_175_1867)"/>
<path d="M950.93 180.55C952.356 180.55 953.436 181.155 954.17 182.365C954.916 183.561 955.29 185.303 955.29 187.59C955.29 189.877 954.916 191.625 954.17 192.835C953.436 194.045 952.356 194.65 950.93 194.65C949.517 194.65 948.437 194.045 947.69 192.835C946.943 191.625 946.57 189.877 946.57 187.59C946.57 185.316 946.943 183.574 947.69 182.365C948.437 181.155 949.517 180.55 950.93 180.55ZM947.99 187.59C947.99 189.212 948.137 190.482 948.43 191.399L952.87 182.564C952.403 181.939 951.756 181.627 950.93 181.627C950.01 181.627 949.29 182.119 948.77 183.102C948.25 184.073 947.99 185.569 947.99 187.59ZM950.93 193.553C951.863 193.553 952.59 193.068 953.11 192.097C953.63 191.113 953.89 189.611 953.89 187.59C953.89 185.875 953.723 184.545 953.39 183.601L948.95 192.516C949.43 193.207 950.09 193.553 950.93 193.553Z" fill="url(#paint54_linear_175_1867)"/>
<path d="M950.93 203.342C952.356 203.342 953.436 203.947 954.17 205.157C954.916 206.354 955.29 208.096 955.29 210.383C955.29 212.669 954.916 214.418 954.17 215.628C953.436 216.838 952.356 217.443 950.93 217.443C949.517 217.443 948.437 216.838 947.69 215.628C946.943 214.418 946.57 212.669 946.57 210.383C946.57 208.109 946.943 206.367 947.69 205.157C948.437 203.947 949.517 203.342 950.93 203.342ZM947.99 210.383C947.99 212.005 948.137 213.274 948.43 214.192L952.87 205.357C952.403 204.732 951.756 204.419 950.93 204.419C950.01 204.419 949.29 204.911 948.77 205.895C948.25 206.866 947.99 208.362 947.99 210.383ZM950.93 216.346C951.863 216.346 952.59 215.86 953.11 214.89C953.63 213.906 953.89 212.404 953.89 210.383C953.89 208.667 953.723 207.338 953.39 206.394L948.95 215.309C949.43 216 950.09 216.346 950.93 216.346Z" fill="url(#paint55_linear_175_1867)"/>
<path d="M952.13 238.979H955.07V240.036H947.45V238.979H950.85V227.771L947.61 229.705L947.05 228.808L951.05 226.335H952.13V238.979Z" fill="url(#paint56_linear_175_1867)"/>
<path d="M950.93 248.928C952.356 248.928 953.436 249.533 954.17 250.743C954.916 251.94 955.29 253.681 955.29 255.968C955.29 258.255 954.916 260.003 954.17 261.213C953.436 262.423 952.356 263.028 950.93 263.028C949.517 263.028 948.437 262.423 947.69 261.213C946.943 260.003 946.57 258.255 946.57 255.968C946.57 253.695 946.943 251.953 947.69 250.743C948.437 249.533 949.517 248.928 950.93 248.928ZM947.99 255.968C947.99 257.59 948.137 258.86 948.43 259.777L952.87 250.942C952.403 250.317 951.756 250.005 950.93 250.005C950.01 250.005 949.29 250.497 948.77 251.481C948.25 252.451 947.99 253.947 947.99 255.968ZM950.93 261.931C951.863 261.931 952.59 261.446 953.11 260.475C953.63 259.492 953.89 257.989 953.89 255.968C953.89 254.253 953.723 252.923 953.39 251.979L948.95 260.894C949.43 261.586 950.09 261.931 950.93 261.931Z" fill="url(#paint57_linear_175_1867)"/>
<path d="M952.13 284.565H955.07V285.622H947.45V284.565H950.85V273.356L947.61 275.291L947.05 274.393L951.05 271.92H952.13V284.565Z" fill="url(#paint58_linear_175_1867)"/>
<path d="M952.13 307.357H955.07V308.414H947.45V307.357H950.85V296.149L947.61 298.084L947.05 297.186L951.05 294.713H952.13V307.357Z" fill="url(#paint59_linear_175_1867)"/>
<path d="M988.07 66.5856C989.497 66.5856 990.577 67.1906 991.31 68.4005C992.057 69.5971 992.43 71.3389 992.43 73.6257C992.43 75.9126 992.057 77.661 991.31 78.8709C990.577 80.0808 989.497 80.6858 988.07 80.6858C986.657 80.6858 985.577 80.0808 984.83 78.8709C984.084 77.661 983.71 75.9126 983.71 73.6257C983.71 71.3522 984.084 69.6104 984.83 68.4005C985.577 67.1906 986.657 66.5856 988.07 66.5856ZM985.13 73.6257C985.13 75.2478 985.277 76.5176 985.57 77.435L990.01 68.5999C989.543 67.975 988.897 67.6626 988.07 67.6626C987.15 67.6626 986.43 68.1545 985.91 69.1384C985.39 70.109 985.13 71.6048 985.13 73.6257ZM988.07 79.5889C989.003 79.5889 989.73 79.1036 990.25 78.133C990.77 77.1491 991.03 75.6467 991.03 73.6257C991.03 71.9106 990.863 70.581 990.53 69.637L986.09 78.5518C986.57 79.2432 987.23 79.5889 988.07 79.5889Z" fill="url(#paint60_linear_175_1867)"/>
<path d="M989.27 102.222H992.21V103.279H984.59V102.222H987.99V91.0138L984.75 92.9483L984.19 92.0509L988.19 89.5778H989.27V102.222Z" fill="url(#paint61_linear_175_1867)"/>
<path d="M988.07 112.171C989.497 112.171 990.577 112.776 991.31 113.986C992.057 115.183 992.43 116.924 992.43 119.211C992.43 121.498 992.057 123.247 991.31 124.457C990.577 125.666 989.497 126.271 988.07 126.271C986.657 126.271 985.577 125.666 984.83 124.457C984.084 123.247 983.71 121.498 983.71 119.211C983.71 116.938 984.084 115.196 984.83 113.986C985.577 112.776 986.657 112.171 988.07 112.171ZM985.13 119.211C985.13 120.833 985.277 122.103 985.57 123.021L990.01 114.186C989.543 113.561 988.897 113.248 988.07 113.248C987.15 113.248 986.43 113.74 985.91 114.724C985.39 115.695 985.13 117.19 985.13 119.211ZM988.07 125.174C989.003 125.174 989.73 124.689 990.25 123.719C990.77 122.735 991.03 121.232 991.03 119.211C991.03 117.496 990.863 116.167 990.53 115.223L986.09 124.137C986.57 124.829 987.23 125.174 988.07 125.174Z" fill="url(#paint62_linear_175_1867)"/>
<path d="M988.07 134.964C989.497 134.964 990.577 135.569 991.31 136.779C992.057 137.976 992.43 139.717 992.43 142.004C992.43 144.291 992.057 146.039 991.31 147.249C990.577 148.459 989.497 149.064 988.07 149.064C986.657 149.064 985.577 148.459 984.83 147.249C984.084 146.039 983.71 144.291 983.71 142.004C983.71 139.731 984.084 137.989 984.83 136.779C985.577 135.569 986.657 134.964 988.07 134.964ZM985.13 142.004C985.13 143.626 985.277 144.896 985.57 145.813L990.01 136.978C989.543 136.353 988.897 136.041 988.07 136.041C987.15 136.041 986.43 136.533 985.91 137.517C985.39 138.487 985.13 139.983 985.13 142.004ZM988.07 147.967C989.003 147.967 989.73 147.482 990.25 146.511C990.77 145.528 991.03 144.025 991.03 142.004C991.03 140.289 990.863 138.959 990.53 138.015L986.09 146.93C986.57 147.622 987.23 147.967 988.07 147.967Z" fill="url(#paint63_linear_175_1867)"/>
<path d="M989.27 170.601H992.21V171.658H984.59V170.601H987.99V159.392L984.75 161.327L984.19 160.429L988.19 157.956H989.27V170.601Z" fill="url(#paint64_linear_175_1867)"/>
<path d="M988.07 180.55C989.497 180.55 990.577 181.155 991.31 182.365C992.057 183.561 992.43 185.303 992.43 187.59C992.43 189.877 992.057 191.625 991.31 192.835C990.577 194.045 989.497 194.65 988.07 194.65C986.657 194.65 985.577 194.045 984.83 192.835C984.084 191.625 983.71 189.877 983.71 187.59C983.71 185.316 984.084 183.574 984.83 182.365C985.577 181.155 986.657 180.55 988.07 180.55ZM985.13 187.59C985.13 189.212 985.277 190.482 985.57 191.399L990.01 182.564C989.543 181.939 988.897 181.627 988.07 181.627C987.15 181.627 986.43 182.119 985.91 183.102C985.39 184.073 985.13 185.569 985.13 187.59ZM988.07 193.553C989.003 193.553 989.73 193.068 990.25 192.097C990.77 191.113 991.03 189.611 991.03 187.59C991.03 185.875 990.863 184.545 990.53 183.601L986.09 192.516C986.57 193.207 987.23 193.553 988.07 193.553Z" fill="url(#paint65_linear_175_1867)"/>
<path d="M989.27 216.186H992.21V217.243H984.59V216.186H987.99V204.978L984.75 206.912L984.19 206.015L988.19 203.542H989.27V216.186Z" fill="url(#paint66_linear_175_1867)"/>
<path d="M988.07 226.135C989.497 226.135 990.577 226.74 991.31 227.95C992.057 229.147 992.43 230.888 992.43 233.175C992.43 235.462 992.057 237.211 991.31 238.421C990.577 239.63 989.497 240.235 988.07 240.235C986.657 240.235 985.577 239.63 984.83 238.421C984.084 237.211 983.71 235.462 983.71 233.175C983.71 230.902 984.084 229.16 984.83 227.95C985.577 226.74 986.657 226.135 988.07 226.135ZM985.13 233.175C985.13 234.797 985.277 236.067 985.57 236.985L990.01 228.15C989.543 227.525 988.897 227.212 988.07 227.212C987.15 227.212 986.43 227.704 985.91 228.688C985.39 229.659 985.13 231.154 985.13 233.175ZM988.07 239.139C989.003 239.139 989.73 238.653 990.25 237.683C990.77 236.699 991.03 235.196 991.03 233.175C991.03 231.46 990.863 230.131 990.53 229.187L986.09 238.101C986.57 238.793 987.23 239.139 988.07 239.139Z" fill="url(#paint67_linear_175_1867)"/>
<path d="M988.07 248.928C989.497 248.928 990.577 249.533 991.31 250.743C992.057 251.94 992.43 253.681 992.43 255.968C992.43 258.255 992.057 260.003 991.31 261.213C990.577 262.423 989.497 263.028 988.07 263.028C986.657 263.028 985.577 262.423 984.83 261.213C984.084 260.003 983.71 258.255 983.71 255.968C983.71 253.695 984.084 251.953 984.83 250.743C985.577 249.533 986.657 248.928 988.07 248.928ZM985.13 255.968C985.13 257.59 985.277 258.86 985.57 259.777L990.01 250.942C989.543 250.317 988.897 250.005 988.07 250.005C987.15 250.005 986.43 250.497 985.91 251.481C985.39 252.451 985.13 253.947 985.13 255.968ZM988.07 261.931C989.003 261.931 989.73 261.446 990.25 260.475C990.77 259.492 991.03 257.989 991.03 255.968C991.03 254.253 990.863 252.923 990.53 251.979L986.09 260.894C986.57 261.586 987.23 261.931 988.07 261.931Z" fill="url(#paint68_linear_175_1867)"/>
<path d="M989.27 284.565H992.21V285.622H984.59V284.565H987.99V273.356L984.75 275.291L984.19 274.393L988.19 271.92H989.27V284.565Z" fill="url(#paint69_linear_175_1867)"/>
<path d="M988.07 294.514C989.497 294.514 990.577 295.119 991.31 296.329C992.057 297.525 992.43 299.267 992.43 301.554C992.43 303.841 992.057 305.589 991.31 306.799C990.577 308.009 989.497 308.614 988.07 308.614C986.657 308.614 985.577 308.009 984.83 306.799C984.084 305.589 983.71 303.841 983.71 301.554C983.71 299.28 984.084 297.538 984.83 296.329C985.577 295.119 986.657 294.514 988.07 294.514ZM985.13 301.554C985.13 303.176 985.277 304.446 985.57 305.363L990.01 296.528C989.543 295.903 988.897 295.591 988.07 295.591C987.15 295.591 986.43 296.083 985.91 297.066C985.39 298.037 985.13 299.533 985.13 301.554ZM988.07 307.517C989.003 307.517 989.73 307.032 990.25 306.061C990.77 305.077 991.03 303.575 991.03 301.554C991.03 299.839 990.863 298.509 990.53 297.565L986.09 306.48C986.57 307.171 987.23 307.517 988.07 307.517Z" fill="url(#paint70_linear_175_1867)"/>
<path d="M989.27 330.15H992.21V331.207H984.59V330.15H987.99V318.942L984.75 320.876L984.19 319.979L988.19 317.506H989.27V330.15Z" fill="url(#paint71_linear_175_1867)"/>
<path d="M989.27 352.943H992.21V354H984.59V352.943H987.99V341.735L984.75 343.669L984.19 342.772L988.19 340.299H989.27V352.943Z" fill="url(#paint72_linear_175_1867)"/>
<path d="M932.36 89.3784C933.786 89.3784 934.866 89.9834 935.599 91.1933C936.346 92.3899 936.719 94.1317 936.719 96.4185C936.719 98.7054 936.346 100.454 935.599 101.664C934.866 102.874 933.786 103.479 932.36 103.479C930.946 103.479 929.867 102.874 929.12 101.664C928.373 100.454 928 98.7054 928 96.4185C928 94.145 928.373 92.4032 929.12 91.1933C929.867 89.9834 930.946 89.3784 932.36 89.3784ZM929.42 96.4185C929.42 98.0406 929.567 99.3104 929.86 100.228L934.3 91.3927C933.833 90.7678 933.186 90.4554 932.36 90.4554C931.44 90.4554 930.72 90.9473 930.2 91.9312C929.68 92.9018 929.42 94.3976 929.42 96.4185ZM932.36 102.382C933.293 102.382 934.02 101.896 934.54 100.926C935.06 99.9419 935.319 98.4395 935.319 96.4185C935.319 94.7034 935.153 93.3738 934.82 92.4298L930.38 101.345C930.86 102.036 931.52 102.382 932.36 102.382Z" fill="url(#paint73_linear_175_1867)"/>
<path d="M932.36 112.171C933.786 112.171 934.866 112.776 935.599 113.986C936.346 115.183 936.719 116.924 936.719 119.211C936.719 121.498 936.346 123.247 935.599 124.457C934.866 125.666 933.786 126.271 932.36 126.271C930.946 126.271 929.867 125.666 929.12 124.457C928.373 123.247 928 121.498 928 119.211C928 116.938 928.373 115.196 929.12 113.986C929.867 112.776 930.946 112.171 932.36 112.171ZM929.42 119.211C929.42 120.833 929.567 122.103 929.86 123.021L934.3 114.186C933.833 113.561 933.186 113.248 932.36 113.248C931.44 113.248 930.72 113.74 930.2 114.724C929.68 115.695 929.42 117.19 929.42 119.211ZM932.36 125.174C933.293 125.174 934.02 124.689 934.54 123.719C935.06 122.735 935.319 121.232 935.319 119.211C935.319 117.496 935.153 116.167 934.82 115.223L930.38 124.137C930.86 124.829 931.52 125.174 932.36 125.174Z" fill="url(#paint74_linear_175_1867)"/>
<path d="M933.56 147.808H936.499V148.865H928.88V147.808H932.28V136.599L929.04 138.534L928.48 137.636L932.48 135.163H933.56V147.808Z" fill="url(#paint75_linear_175_1867)"/>
<path d="M932.36 157.757C933.786 157.757 934.866 158.362 935.599 159.572C936.346 160.768 936.719 162.51 936.719 164.797C936.719 167.084 936.346 168.832 935.599 170.042C934.866 171.252 933.786 171.857 932.36 171.857C930.946 171.857 929.867 171.252 929.12 170.042C928.373 168.832 928 167.084 928 164.797C928 162.523 928.373 160.782 929.12 159.572C929.867 158.362 930.946 157.757 932.36 157.757ZM929.42 164.797C929.42 166.419 929.567 167.689 929.86 168.606L934.3 159.771C933.833 159.146 933.186 158.834 932.36 158.834C931.44 158.834 930.72 159.326 930.2 160.31C929.68 161.28 929.42 162.776 929.42 164.797ZM932.36 170.76C933.293 170.76 934.02 170.275 934.54 169.304C935.06 168.32 935.319 166.818 935.319 164.797C935.319 163.082 935.153 161.752 934.82 160.808L930.38 169.723C930.86 170.414 931.52 170.76 932.36 170.76Z" fill="url(#paint76_linear_175_1867)"/>
<path d="M933.56 193.393H936.499V194.45H928.88V193.393H932.28V182.185L929.04 184.12L928.48 183.222L932.48 180.749H933.56V193.393Z" fill="url(#paint77_linear_175_1867)"/>
<path d="M933.56 216.186H936.499V217.243H928.88V216.186H932.28V204.978L929.04 206.912L928.48 206.015L932.48 203.542H933.56V216.186Z" fill="url(#paint78_linear_175_1867)"/>
<path d="M970.7 56.6365H973.64V57.6936H966.02V56.6365H969.42V45.4282L966.18 47.3627L965.62 46.4653L969.62 43.9922H970.7V56.6365Z" fill="url(#paint79_linear_175_1867)"/>
<path d="M969.5 66.5856C970.927 66.5856 972.006 67.1906 972.74 68.4005C973.486 69.5971 973.86 71.3389 973.86 73.6257C973.86 75.9126 973.486 77.661 972.74 78.8709C972.006 80.0808 970.927 80.6858 969.5 80.6858C968.087 80.6858 967.007 80.0808 966.26 78.8709C965.514 77.661 965.14 75.9126 965.14 73.6257C965.14 71.3522 965.514 69.6104 966.26 68.4005C967.007 67.1906 968.087 66.5856 969.5 66.5856ZM966.56 73.6257C966.56 75.2478 966.707 76.5176 967 77.435L971.44 68.5999C970.973 67.975 970.327 67.6626 969.5 67.6626C968.58 67.6626 967.86 68.1545 967.34 69.1384C966.82 70.109 966.56 71.6048 966.56 73.6257ZM969.5 79.5889C970.433 79.5889 971.16 79.1036 971.68 78.133C972.2 77.1491 972.46 75.6467 972.46 73.6257C972.46 71.9106 972.293 70.581 971.96 69.637L967.52 78.5518C968 79.2432 968.66 79.5889 969.5 79.5889Z" fill="url(#paint80_linear_175_1867)"/>
<path d="M970.7 102.222H973.64V103.279H966.02V102.222H969.42V91.0138L966.18 92.9483L965.62 92.0509L969.62 89.5778H970.7V102.222Z" fill="url(#paint81_linear_175_1867)"/>
<path d="M970.7 125.015H973.64V126.072H966.02V125.015H969.42V113.807L966.18 115.741L965.62 114.844L969.62 112.371H970.7V125.015Z" fill="url(#paint82_linear_175_1867)"/>
<path d="M969.5 134.964C970.927 134.964 972.006 135.569 972.74 136.779C973.486 137.976 973.86 139.717 973.86 142.004C973.86 144.291 973.486 146.039 972.74 147.249C972.006 148.459 970.927 149.064 969.5 149.064C968.087 149.064 967.007 148.459 966.26 147.249C965.514 146.039 965.14 144.291 965.14 142.004C965.14 139.731 965.514 137.989 966.26 136.779C967.007 135.569 968.087 134.964 969.5 134.964ZM966.56 142.004C966.56 143.626 966.707 144.896 967 145.813L971.44 136.978C970.973 136.353 970.327 136.041 969.5 136.041C968.58 136.041 967.86 136.533 967.34 137.517C966.82 138.487 966.56 139.983 966.56 142.004ZM969.5 147.967C970.433 147.967 971.16 147.482 971.68 146.511C972.2 145.528 972.46 144.025 972.46 142.004C972.46 140.289 972.293 138.959 971.96 138.015L967.52 146.93C968 147.622 968.66 147.967 969.5 147.967Z" fill="url(#paint83_linear_175_1867)"/>
<path d="M970.7 170.601H973.64V171.658H966.02V170.601H969.42V159.392L966.18 161.327L965.62 160.429L969.62 157.956H970.7V170.601Z" fill="url(#paint84_linear_175_1867)"/>
<path d="M970.7 193.393H973.64V194.45H966.02V193.393H969.42V182.185L966.18 184.12L965.62 183.222L969.62 180.749H970.7V193.393Z" fill="url(#paint85_linear_175_1867)"/>
<path d="M969.5 203.342C970.927 203.342 972.006 203.947 972.74 205.157C973.486 206.354 973.86 208.096 973.86 210.383C973.86 212.669 973.486 214.418 972.74 215.628C972.006 216.838 970.927 217.443 969.5 217.443C968.087 217.443 967.007 216.838 966.26 215.628C965.514 214.418 965.14 212.669 965.14 210.383C965.14 208.109 965.514 206.367 966.26 205.157C967.007 203.947 968.087 203.342 969.5 203.342ZM966.56 210.383C966.56 212.005 966.707 213.274 967 214.192L971.44 205.357C970.973 204.732 970.327 204.419 969.5 204.419C968.58 204.419 967.86 204.911 967.34 205.895C966.82 206.866 966.56 208.362 966.56 210.383ZM969.5 216.346C970.433 216.346 971.16 215.86 971.68 214.89C972.2 213.906 972.46 212.404 972.46 210.383C972.46 208.667 972.293 207.338 971.96 206.394L967.52 215.309C968 216 968.66 216.346 969.5 216.346Z" fill="url(#paint86_linear_175_1867)"/>
<path d="M970.7 238.979H973.64V240.036H966.02V238.979H969.42V227.771L966.18 229.705L965.62 228.808L969.62 226.335H970.7V238.979Z" fill="url(#paint87_linear_175_1867)"/>
<path d="M969.5 248.928C970.927 248.928 972.006 249.533 972.74 250.743C973.486 251.94 973.86 253.681 973.86 255.968C973.86 258.255 973.486 260.003 972.74 261.213C972.006 262.423 970.927 263.028 969.5 263.028C968.087 263.028 967.007 262.423 966.26 261.213C965.514 260.003 965.14 258.255 965.14 255.968C965.14 253.695 965.514 251.953 966.26 250.743C967.007 249.533 968.087 248.928 969.5 248.928ZM966.56 255.968C966.56 257.59 966.707 258.86 967 259.777L971.44 250.942C970.973 250.317 970.327 250.005 969.5 250.005C968.58 250.005 967.86 250.497 967.34 251.481C966.82 252.451 966.56 253.947 966.56 255.968ZM969.5 261.931C970.433 261.931 971.16 261.446 971.68 260.475C972.2 259.492 972.46 257.989 972.46 255.968C972.46 254.253 972.293 252.923 971.96 251.979L967.52 260.894C968 261.586 968.66 261.931 969.5 261.931Z" fill="url(#paint88_linear_175_1867)"/>
<path d="M1006.64 43.7928C1008.07 43.7928 1009.15 44.3978 1009.88 45.6077C1010.63 46.8043 1011 48.5461 1011 50.8329C1011 53.1198 1010.63 54.8682 1009.88 56.0781C1009.15 57.288 1008.07 57.893 1006.64 57.893C1005.23 57.893 1004.15 57.288 1003.4 56.0781C1002.65 54.8682 1002.28 53.1198 1002.28 50.8329C1002.28 48.5593 1002.65 46.8176 1003.4 45.6077C1004.15 44.3978 1005.23 43.7928 1006.64 43.7928ZM1003.7 50.8329C1003.7 52.455 1003.85 53.7248 1004.14 54.6422L1008.58 45.8071C1008.11 45.1822 1007.47 44.8698 1006.64 44.8698C1005.72 44.8698 1005 45.3617 1004.48 46.3456C1003.96 47.3162 1003.7 48.812 1003.7 50.8329ZM1006.64 56.7961C1007.57 56.7961 1008.3 56.3108 1008.82 55.3402C1009.34 54.3563 1009.6 52.8539 1009.6 50.8329C1009.6 49.1178 1009.43 47.7882 1009.1 46.8442L1004.66 55.759C1005.14 56.4504 1005.8 56.7961 1006.64 56.7961Z" fill="url(#paint89_linear_175_1867)"/>
<path d="M1007.84 79.4293H1010.78V80.4864H1003.16V79.4293H1006.56V68.221L1003.32 70.1555L1002.76 69.2581L1006.76 66.785H1007.84V79.4293Z" fill="url(#paint90_linear_175_1867)"/>
<path d="M1007.84 102.222H1010.78V103.279H1003.16V102.222H1006.56V91.0138L1003.32 92.9483L1002.76 92.0509L1006.76 89.5778H1007.84V102.222Z" fill="url(#paint91_linear_175_1867)"/>
<path d="M1006.64 112.171C1008.07 112.171 1009.15 112.776 1009.88 113.986C1010.63 115.183 1011 116.924 1011 119.211C1011 121.498 1010.63 123.247 1009.88 124.457C1009.15 125.666 1008.07 126.271 1006.64 126.271C1005.23 126.271 1004.15 125.666 1003.4 124.457C1002.65 123.247 1002.28 121.498 1002.28 119.211C1002.28 116.938 1002.65 115.196 1003.4 113.986C1004.15 112.776 1005.23 112.171 1006.64 112.171ZM1003.7 119.211C1003.7 120.833 1003.85 122.103 1004.14 123.021L1008.58 114.186C1008.11 113.561 1007.47 113.248 1006.64 113.248C1005.72 113.248 1005 113.74 1004.48 114.724C1003.96 115.695 1003.7 117.19 1003.7 119.211ZM1006.64 125.174C1007.57 125.174 1008.3 124.689 1008.82 123.719C1009.34 122.735 1009.6 121.232 1009.6 119.211C1009.6 117.496 1009.43 116.167 1009.1 115.223L1004.66 124.137C1005.14 124.829 1005.8 125.174 1006.64 125.174Z" fill="url(#paint92_linear_175_1867)"/>
<path d="M1006.64 134.964C1008.07 134.964 1009.15 135.569 1009.88 136.779C1010.63 137.976 1011 139.717 1011 142.004C1011 144.291 1010.63 146.039 1009.88 147.249C1009.15 148.459 1008.07 149.064 1006.64 149.064C1005.23 149.064 1004.15 148.459 1003.4 147.249C1002.65 146.039 1002.28 144.291 1002.28 142.004C1002.28 139.731 1002.65 137.989 1003.4 136.779C1004.15 135.569 1005.23 134.964 1006.64 134.964ZM1003.7 142.004C1003.7 143.626 1003.85 144.896 1004.14 145.813L1008.58 136.978C1008.11 136.353 1007.47 136.041 1006.64 136.041C1005.72 136.041 1005 136.533 1004.48 137.517C1003.96 138.487 1003.7 139.983 1003.7 142.004ZM1006.64 147.967C1007.57 147.967 1008.3 147.482 1008.82 146.511C1009.34 145.528 1009.6 144.025 1009.6 142.004C1009.6 140.289 1009.43 138.959 1009.1 138.015L1004.66 146.93C1005.14 147.622 1005.8 147.967 1006.64 147.967Z" fill="url(#paint93_linear_175_1867)"/>
</g>
</g>
<defs>
<filter id="filter0_f_175_1867" x="-527.19" y="-665.19" width="2141.38" height="1500.38" filterUnits="userSpaceOnUse" color-interpolation-filters="sRGB">
<feFlood flood-opacity="0" result="BackgroundImageFix"/>
<feBlend mode="normal" in="SourceGraphic" in2="BackgroundImageFix" result="shape"/>
<feGaussianBlur stdDeviation="200.095" result="effect1_foregroundBlur_175_1867"/>
</filter>
<linearGradient id="paint0_linear_175_1867" x1="83.5" y1="321" x2="83.5" y2="632.381" gradientUnits="userSpaceOnUse">
<stop stop-color="#F7DD43"/>
<stop offset="1" stop-color="#F7DD43" stop-opacity="0"/>
</linearGradient>
<linearGradient id="paint1_linear_175_1867" x1="83.5" y1="321" x2="83.5" y2="632.381" gradientUnits="userSpaceOnUse">
<stop stop-color="#F7DD43"/>
<stop offset="1" stop-color="#F7DD43" stop-opacity="0"/>
</linearGradient>
<linearGradient id="paint2_linear_175_1867" x1="83.5" y1="321" x2="83.5" y2="632.381" gradientUnits="userSpaceOnUse">
<stop stop-color="#F7DD43"/>
<stop offset="1" stop-color="#F7DD43" stop-opacity="0"/>
</linearGradient>
<linearGradient id="paint3_linear_175_1867" x1="83.5" y1="321" x2="83.5" y2="632.381" gradientUnits="userSpaceOnUse">
<stop stop-color="#F7DD43"/>
<stop offset="1" stop-color="#F7DD43" stop-opacity="0"/>
</linearGradient>
<linearGradient id="paint4_linear_175_1867" x1="83.5" y1="321" x2="83.5" y2="632.381" gradientUnits="userSpaceOnUse">
<stop stop-color="#F7DD43"/>
<stop offset="1" stop-color="#F7DD43" stop-opacity="0"/>
</linearGradient>
<linearGradient id="paint5_linear_175_1867" x1="83.5" y1="321" x2="83.5" y2="632.381" gradientUnits="userSpaceOnUse">
<stop stop-color="#F7DD43"/>
<stop offset="1" stop-color="#F7DD43" stop-opacity="0"/>
</linearGradient>
<linearGradient id="paint6_linear_175_1867" x1="83.5" y1="321" x2="83.5" y2="632.381" gradientUnits="userSpaceOnUse">
<stop stop-color="#F7DD43"/>
<stop offset="1" stop-color="#F7DD43" stop-opacity="0"/>
</linearGradient>
<linearGradient id="paint7_linear_175_1867" x1="83.5" y1="321" x2="83.5" y2="632.381" gradientUnits="userSpaceOnUse">
<stop stop-color="#F7DD43"/>
<stop offset="1" stop-color="#F7DD43" stop-opacity="0"/>
</linearGradient>
<linearGradient id="paint8_linear_175_1867" x1="83.5" y1="321" x2="83.5" y2="632.381" gradientUnits="userSpaceOnUse">
<stop stop-color="#F7DD43"/>
<stop offset="1" stop-color="#F7DD43" stop-opacity="0"/>
</linearGradient>
<linearGradient id="paint9_linear_175_1867" x1="83.5" y1="321" x2="83.5" y2="632.381" gradientUnits="userSpaceOnUse">
<stop stop-color="#F7DD43"/>
<stop offset="1" stop-color="#F7DD43" stop-opacity="0"/>
</linearGradient>
<linearGradient id="paint10_linear_175_1867" x1="83.5" y1="321" x2="83.5" y2="632.381" gradientUnits="userSpaceOnUse">
<stop stop-color="#F7DD43"/>
<stop offset="1" stop-color="#F7DD43" stop-opacity="0"/>
</linearGradient>
<linearGradient id="paint11_linear_175_1867" x1="83.5" y1="321" x2="83.5" y2="632.381" gradientUnits="userSpaceOnUse">
<stop stop-color="#F7DD43"/>
<stop offset="1" stop-color="#F7DD43" stop-opacity="0"/>
</linearGradient>
<linearGradient id="paint12_linear_175_1867" x1="83.5" y1="321" x2="83.5" y2="632.381" gradientUnits="userSpaceOnUse">
<stop stop-color="#F7DD43"/>
<stop offset="1" stop-color="#F7DD43" stop-opacity="0"/>
</linearGradient>
<linearGradient id="paint13_linear_175_1867" x1="83.5" y1="321" x2="83.5" y2="632.381" gradientUnits="userSpaceOnUse">
<stop stop-color="#F7DD43"/>
<stop offset="1" stop-color="#F7DD43" stop-opacity="0"/>
</linearGradient>
<linearGradient id="paint14_linear_175_1867" x1="83.5" y1="321" x2="83.5" y2="632.381" gradientUnits="userSpaceOnUse">
<stop stop-color="#F7DD43"/>
<stop offset="1" stop-color="#F7DD43" stop-opacity="0"/>
</linearGradient>
<linearGradient id="paint15_linear_175_1867" x1="83.5" y1="321" x2="83.5" y2="632.381" gradientUnits="userSpaceOnUse">
<stop stop-color="#F7DD43"/>
<stop offset="1" stop-color="#F7DD43" stop-opacity="0"/>
</linearGradient>
<linearGradient id="paint16_linear_175_1867" x1="83.5" y1="321" x2="83.5" y2="632.381" gradientUnits="userSpaceOnUse">
<stop stop-color="#F7DD43"/>
<stop offset="1" stop-color="#F7DD43" stop-opacity="0"/>
</linearGradient>
<linearGradient id="paint17_linear_175_1867" x1="83.5" y1="321" x2="83.5" y2="632.381" gradientUnits="userSpaceOnUse">
<stop stop-color="#F7DD43"/>
<stop offset="1" stop-color="#F7DD43" stop-opacity="0"/>
</linearGradient>
<linearGradient id="paint18_linear_175_1867" x1="83.5" y1="321" x2="83.5" y2="632.381" gradientUnits="userSpaceOnUse">
<stop stop-color="#F7DD43"/>
<stop offset="1" stop-color="#F7DD43" stop-opacity="0"/>
</linearGradient>
<linearGradient id="paint19_linear_175_1867" x1="83.5" y1="321" x2="83.5" y2="632.381" gradientUnits="userSpaceOnUse">
<stop stop-color="#F7DD43"/>
<stop offset="1" stop-color="#F7DD43" stop-opacity="0"/>
</linearGradient>
<linearGradient id="paint20_linear_175_1867" x1="83.5" y1="321" x2="83.5" y2="632.381" gradientUnits="userSpaceOnUse">
<stop stop-color="#F7DD43"/>
<stop offset="1" stop-color="#F7DD43" stop-opacity="0"/>
</linearGradient>
<linearGradient id="paint21_linear_175_1867" x1="83.5" y1="321" x2="83.5" y2="632.381" gradientUnits="userSpaceOnUse">
<stop stop-color="#F7DD43"/>
<stop offset="1" stop-color="#F7DD43" stop-opacity="0"/>
</linearGradient>
<linearGradient id="paint22_linear_175_1867" x1="83.5" y1="321" x2="83.5" y2="632.381" gradientUnits="userSpaceOnUse">
<stop stop-color="#F7DD43"/>
<stop offset="1" stop-color="#F7DD43" stop-opacity="0"/>
</linearGradient>
<linearGradient id="paint23_linear_175_1867" x1="83.5" y1="321" x2="83.5" y2="632.381" gradientUnits="userSpaceOnUse">
<stop stop-color="#F7DD43"/>
<stop offset="1" stop-color="#F7DD43" stop-opacity="0"/>
</linearGradient>
<linearGradient id="paint24_linear_175_1867" x1="83.5" y1="321" x2="83.5" y2="632.381" gradientUnits="userSpaceOnUse">
<stop stop-color="#F7DD43"/>
<stop offset="1" stop-color="#F7DD43" stop-opacity="0"/>
</linearGradient>
<linearGradient id="paint25_linear_175_1867" x1="83.5" y1="321" x2="83.5" y2="632.381" gradientUnits="userSpaceOnUse">
<stop stop-color="#F7DD43"/>
<stop offset="1" stop-color="#F7DD43" stop-opacity="0"/>
</linearGradient>
<linearGradient id="paint26_linear_175_1867" x1="83.5" y1="321" x2="83.5" y2="632.381" gradientUnits="userSpaceOnUse">
<stop stop-color="#F7DD43"/>
<stop offset="1" stop-color="#F7DD43" stop-opacity="0"/>
</linearGradient>
<linearGradient id="paint27_linear_175_1867" x1="83.5" y1="321" x2="83.5" y2="632.381" gradientUnits="userSpaceOnUse">
<stop stop-color="#F7DD43"/>
<stop offset="1" stop-color="#F7DD43" stop-opacity="0"/>
</linearGradient>
<linearGradient id="paint28_linear_175_1867" x1="83.5" y1="321" x2="83.5" y2="632.381" gradientUnits="userSpaceOnUse">
<stop stop-color="#F7DD43"/>
<stop offset="1" stop-color="#F7DD43" stop-opacity="0"/>
</linearGradient>
<linearGradient id="paint29_linear_175_1867" x1="83.5" y1="321" x2="83.5" y2="632.381" gradientUnits="userSpaceOnUse">
<stop stop-color="#F7DD43"/>
<stop offset="1" stop-color="#F7DD43" stop-opacity="0"/>
</linearGradient>
<linearGradient id="paint30_linear_175_1867" x1="83.5" y1="321" x2="83.5" y2="632.381" gradientUnits="userSpaceOnUse">
<stop stop-color="#F7DD43"/>
<stop offset="1" stop-color="#F7DD43" stop-opacity="0"/>
</linearGradient>
<linearGradient id="paint31_linear_175_1867" x1="83.5" y1="321" x2="83.5" y2="632.381" gradientUnits="userSpaceOnUse">
<stop stop-color="#F7DD43"/>
<stop offset="1" stop-color="#F7DD43" stop-opacity="0"/>
</linearGradient>
<linearGradient id="paint32_linear_175_1867" x1="83.5" y1="321" x2="83.5" y2="632.381" gradientUnits="userSpaceOnUse">
<stop stop-color="#F7DD43"/>
<stop offset="1" stop-color="#F7DD43" stop-opacity="0"/>
</linearGradient>
<linearGradient id="paint33_linear_175_1867" x1="83.5" y1="321" x2="83.5" y2="632.381" gradientUnits="userSpaceOnUse">
<stop stop-color="#F7DD43"/>
<stop offset="1" stop-color="#F7DD43" stop-opacity="0"/>
</linearGradient>
<linearGradient id="paint34_linear_175_1867" x1="83.5" y1="321" x2="83.5" y2="632.381" gradientUnits="userSpaceOnUse">
<stop stop-color="#F7DD43"/>
<stop offset="1" stop-color="#F7DD43" stop-opacity="0"/>
</linearGradient>
<linearGradient id="paint35_linear_175_1867" x1="83.5" y1="321" x2="83.5" y2="632.381" gradientUnits="userSpaceOnUse">
<stop stop-color="#F7DD43"/>
<stop offset="1" stop-color="#F7DD43" stop-opacity="0"/>
</linearGradient>
<linearGradient id="paint36_linear_175_1867" x1="83.5" y1="321" x2="83.5" y2="632.381" gradientUnits="userSpaceOnUse">
<stop stop-color="#F7DD43"/>
<stop offset="1" stop-color="#F7DD43" stop-opacity="0"/>
</linearGradient>
<linearGradient id="paint37_linear_175_1867" x1="83.5" y1="321" x2="83.5" y2="632.381" gradientUnits="userSpaceOnUse">
<stop stop-color="#F7DD43"/>
<stop offset="1" stop-color="#F7DD43" stop-opacity="0"/>
</linearGradient>
<linearGradient id="paint38_linear_175_1867" x1="83.5" y1="321" x2="83.5" y2="632.381" gradientUnits="userSpaceOnUse">
<stop stop-color="#F7DD43"/>
<stop offset="1" stop-color="#F7DD43" stop-opacity="0"/>
</linearGradient>
<linearGradient id="paint39_linear_175_1867" x1="83.5" y1="321" x2="83.5" y2="632.381" gradientUnits="userSpaceOnUse">
<stop stop-color="#F7DD43"/>
<stop offset="1" stop-color="#F7DD43" stop-opacity="0"/>
</linearGradient>
<linearGradient id="paint40_linear_175_1867" x1="83.5" y1="321" x2="83.5" y2="632.381" gradientUnits="userSpaceOnUse">
<stop stop-color="#F7DD43"/>
<stop offset="1" stop-color="#F7DD43" stop-opacity="0"/>
</linearGradient>
<linearGradient id="paint41_linear_175_1867" x1="83.5" y1="321" x2="83.5" y2="632.381" gradientUnits="userSpaceOnUse">
<stop stop-color="#F7DD43"/>
<stop offset="1" stop-color="#F7DD43" stop-opacity="0"/>
</linearGradient>
<linearGradient id="paint42_linear_175_1867" x1="83.5" y1="321" x2="83.5" y2="632.381" gradientUnits="userSpaceOnUse">
<stop stop-color="#F7DD43"/>
<stop offset="1" stop-color="#F7DD43" stop-opacity="0"/>
</linearGradient>
<linearGradient id="paint43_linear_175_1867" x1="83.5" y1="321" x2="83.5" y2="632.381" gradientUnits="userSpaceOnUse">
<stop stop-color="#F7DD43"/>
<stop offset="1" stop-color="#F7DD43" stop-opacity="0"/>
</linearGradient>
<linearGradient id="paint44_linear_175_1867" x1="83.5" y1="321" x2="83.5" y2="632.381" gradientUnits="userSpaceOnUse">
<stop stop-color="#F7DD43"/>
<stop offset="1" stop-color="#F7DD43" stop-opacity="0"/>
</linearGradient>
<linearGradient id="paint45_linear_175_1867" x1="83.5" y1="321" x2="83.5" y2="632.381" gradientUnits="userSpaceOnUse">
<stop stop-color="#F7DD43"/>
<stop offset="1" stop-color="#F7DD43" stop-opacity="0"/>
</linearGradient>
<linearGradient id="paint46_linear_175_1867" x1="83.5" y1="321" x2="83.5" y2="632.381" gradientUnits="userSpaceOnUse">
<stop stop-color="#F7DD43"/>
<stop offset="1" stop-color="#F7DD43" stop-opacity="0"/>
</linearGradient>
<linearGradient id="paint47_linear_175_1867" x1="969.5" y1="21" x2="969.5" y2="319.818" gradientUnits="userSpaceOnUse">
<stop stop-color="#F7DD43"/>
<stop offset="1" stop-color="#F7DD43" stop-opacity="0"/>
</linearGradient>
<linearGradient id="paint48_linear_175_1867" x1="969.5" y1="21" x2="969.5" y2="319.818" gradientUnits="userSpaceOnUse">
<stop stop-color="#F7DD43"/>
<stop offset="1" stop-color="#F7DD43" stop-opacity="0"/>
</linearGradient>
<linearGradient id="paint49_linear_175_1867" x1="969.5" y1="21" x2="969.5" y2="319.818" gradientUnits="userSpaceOnUse">
<stop stop-color="#F7DD43"/>
<stop offset="1" stop-color="#F7DD43" stop-opacity="0"/>
</linearGradient>
<linearGradient id="paint50_linear_175_1867" x1="969.5" y1="21" x2="969.5" y2="319.818" gradientUnits="userSpaceOnUse">
<stop stop-color="#F7DD43"/>
<stop offset="1" stop-color="#F7DD43" stop-opacity="0"/>
</linearGradient>
<linearGradient id="paint51_linear_175_1867" x1="969.5" y1="21" x2="969.5" y2="319.818" gradientUnits="userSpaceOnUse">
<stop stop-color="#F7DD43"/>
<stop offset="1" stop-color="#F7DD43" stop-opacity="0"/>
</linearGradient>
<linearGradient id="paint52_linear_175_1867" x1="969.5" y1="21" x2="969.5" y2="319.818" gradientUnits="userSpaceOnUse">
<stop stop-color="#F7DD43"/>
<stop offset="1" stop-color="#F7DD43" stop-opacity="0"/>
</linearGradient>
<linearGradient id="paint53_linear_175_1867" x1="969.5" y1="21" x2="969.5" y2="319.818" gradientUnits="userSpaceOnUse">
<stop stop-color="#F7DD43"/>
<stop offset="1" stop-color="#F7DD43" stop-opacity="0"/>
</linearGradient>
<linearGradient id="paint54_linear_175_1867" x1="969.5" y1="21" x2="969.5" y2="319.818" gradientUnits="userSpaceOnUse">
<stop stop-color="#F7DD43"/>
<stop offset="1" stop-color="#F7DD43" stop-opacity="0"/>
</linearGradient>
<linearGradient id="paint55_linear_175_1867" x1="969.5" y1="21" x2="969.5" y2="319.818" gradientUnits="userSpaceOnUse">
<stop stop-color="#F7DD43"/>
<stop offset="1" stop-color="#F7DD43" stop-opacity="0"/>
</linearGradient>
<linearGradient id="paint56_linear_175_1867" x1="969.5" y1="21" x2="969.5" y2="319.818" gradientUnits="userSpaceOnUse">
<stop stop-color="#F7DD43"/>
<stop offset="1" stop-color="#F7DD43" stop-opacity="0"/>
</linearGradient>
<linearGradient id="paint57_linear_175_1867" x1="969.5" y1="21" x2="969.5" y2="319.818" gradientUnits="userSpaceOnUse">
<stop stop-color="#F7DD43"/>
<stop offset="1" stop-color="#F7DD43" stop-opacity="0"/>
</linearGradient>
<linearGradient id="paint58_linear_175_1867" x1="969.5" y1="21" x2="969.5" y2="319.818" gradientUnits="userSpaceOnUse">
<stop stop-color="#F7DD43"/>
<stop offset="1" stop-color="#F7DD43" stop-opacity="0"/>
</linearGradient>
<linearGradient id="paint59_linear_175_1867" x1="969.5" y1="21" x2="969.5" y2="319.818" gradientUnits="userSpaceOnUse">
<stop stop-color="#F7DD43"/>
<stop offset="1" stop-color="#F7DD43" stop-opacity="0"/>
</linearGradient>
<linearGradient id="paint60_linear_175_1867" x1="969.5" y1="21" x2="969.5" y2="319.818" gradientUnits="userSpaceOnUse">
<stop stop-color="#F7DD43"/>
<stop offset="1" stop-color="#F7DD43" stop-opacity="0"/>
</linearGradient>
<linearGradient id="paint61_linear_175_1867" x1="969.5" y1="21" x2="969.5" y2="319.818" gradientUnits="userSpaceOnUse">
<stop stop-color="#F7DD43"/>
<stop offset="1" stop-color="#F7DD43" stop-opacity="0"/>
</linearGradient>
<linearGradient id="paint62_linear_175_1867" x1="969.5" y1="21" x2="969.5" y2="319.818" gradientUnits="userSpaceOnUse">
<stop stop-color="#F7DD43"/>
<stop offset="1" stop-color="#F7DD43" stop-opacity="0"/>
</linearGradient>
<linearGradient id="paint63_linear_175_1867" x1="969.5" y1="21" x2="969.5" y2="319.818" gradientUnits="userSpaceOnUse">
<stop stop-color="#F7DD43"/>
<stop offset="1" stop-color="#F7DD43" stop-opacity="0"/>
</linearGradient>
<linearGradient id="paint64_linear_175_1867" x1="969.5" y1="21" x2="969.5" y2="319.818" gradientUnits="userSpaceOnUse">
<stop stop-color="#F7DD43"/>
<stop offset="1" stop-color="#F7DD43" stop-opacity="0"/>
</linearGradient>
<linearGradient id="paint65_linear_175_1867" x1="969.5" y1="21" x2="969.5" y2="319.818" gradientUnits="userSpaceOnUse">
<stop stop-color="#F7DD43"/>
<stop offset="1" stop-color="#F7DD43" stop-opacity="0"/>
</linearGradient>
<linearGradient id="paint66_linear_175_1867" x1="969.5" y1="21" x2="969.5" y2="319.818" gradientUnits="userSpaceOnUse">
<stop stop-color="#F7DD43"/>
<stop offset="1" stop-color="#F7DD43" stop-opacity="0"/>
</linearGradient>
<linearGradient id="paint67_linear_175_1867" x1="969.5" y1="21" x2="969.5" y2="319.818" gradientUnits="userSpaceOnUse">
<stop stop-color="#F7DD43"/>
<stop offset="1" stop-color="#F7DD43" stop-opacity="0"/>
</linearGradient>
<linearGradient id="paint68_linear_175_1867" x1="969.5" y1="21" x2="969.5" y2="319.818" gradientUnits="userSpaceOnUse">
<stop stop-color="#F7DD43"/>
<stop offset="1" stop-color="#F7DD43" stop-opacity="0"/>
</linearGradient>
<linearGradient id="paint69_linear_175_1867" x1="969.5" y1="21" x2="969.5" y2="319.818" gradientUnits="userSpaceOnUse">
<stop stop-color="#F7DD43"/>
<stop offset="1" stop-color="#F7DD43" stop-opacity="0"/>
</linearGradient>
<linearGradient id="paint70_linear_175_1867" x1="969.5" y1="21" x2="969.5" y2="319.818" gradientUnits="userSpaceOnUse">
<stop stop-color="#F7DD43"/>
<stop offset="1" stop-color="#F7DD43" stop-opacity="0"/>
</linearGradient>
<linearGradient id="paint71_linear_175_1867" x1="969.5" y1="21" x2="969.5" y2="319.818" gradientUnits="userSpaceOnUse">
<stop stop-color="#F7DD43"/>
<stop offset="1" stop-color="#F7DD43" stop-opacity="0"/>
</linearGradient>
<linearGradient id="paint72_linear_175_1867" x1="969.5" y1="21" x2="969.5" y2="319.818" gradientUnits="userSpaceOnUse">
<stop stop-color="#F7DD43"/>
<stop offset="1" stop-color="#F7DD43" stop-opacity="0"/>
</linearGradient>
<linearGradient id="paint73_linear_175_1867" x1="969.5" y1="21" x2="969.5" y2="319.818" gradientUnits="userSpaceOnUse">
<stop stop-color="#F7DD43"/>
<stop offset="1" stop-color="#F7DD43" stop-opacity="0"/>
</linearGradient>
<linearGradient id="paint74_linear_175_1867" x1="969.5" y1="21" x2="969.5" y2="319.818" gradientUnits="userSpaceOnUse">
<stop stop-color="#F7DD43"/>
<stop offset="1" stop-color="#F7DD43" stop-opacity="0"/>
</linearGradient>
<linearGradient id="paint75_linear_175_1867" x1="969.5" y1="21" x2="969.5" y2="319.818" gradientUnits="userSpaceOnUse">
<stop stop-color="#F7DD43"/>
<stop offset="1" stop-color="#F7DD43" stop-opacity="0"/>
</linearGradient>
<linearGradient id="paint76_linear_175_1867" x1="969.5" y1="21" x2="969.5" y2="319.818" gradientUnits="userSpaceOnUse">
<stop stop-color="#F7DD43"/>
<stop offset="1" stop-color="#F7DD43" stop-opacity="0"/>
</linearGradient>
<linearGradient id="paint77_linear_175_1867" x1="969.5" y1="21" x2="969.5" y2="319.818" gradientUnits="userSpaceOnUse">
<stop stop-color="#F7DD43"/>
<stop offset="1" stop-color="#F7DD43" stop-opacity="0"/>
</linearGradient>
<linearGradient id="paint78_linear_175_1867" x1="969.5" y1="21" x2="969.5" y2="319.818" gradientUnits="userSpaceOnUse">
<stop stop-color="#F7DD43"/>
<stop offset="1" stop-color="#F7DD43" stop-opacity="0"/>
</linearGradient>
<linearGradient id="paint79_linear_175_1867" x1="969.5" y1="21" x2="969.5" y2="319.818" gradientUnits="userSpaceOnUse">
<stop stop-color="#F7DD43"/>
<stop offset="1" stop-color="#F7DD43" stop-opacity="0"/>
</linearGradient>
<linearGradient id="paint80_linear_175_1867" x1="969.5" y1="21" x2="969.5" y2="319.818" gradientUnits="userSpaceOnUse">
<stop stop-color="#F7DD43"/>
<stop offset="1" stop-color="#F7DD43" stop-opacity="0"/>
</linearGradient>
<linearGradient id="paint81_linear_175_1867" x1="969.5" y1="21" x2="969.5" y2="319.818" gradientUnits="userSpaceOnUse">
<stop stop-color="#F7DD43"/>
<stop offset="1" stop-color="#F7DD43" stop-opacity="0"/>
</linearGradient>
<linearGradient id="paint82_linear_175_1867" x1="969.5" y1="21" x2="969.5" y2="319.818" gradientUnits="userSpaceOnUse">
<stop stop-color="#F7DD43"/>
<stop offset="1" stop-color="#F7DD43" stop-opacity="0"/>
</linearGradient>
<linearGradient id="paint83_linear_175_1867" x1="969.5" y1="21" x2="969.5" y2="319.818" gradientUnits="userSpaceOnUse">
<stop stop-color="#F7DD43"/>
<stop offset="1" stop-color="#F7DD43" stop-opacity="0"/>
</linearGradient>
<linearGradient id="paint84_linear_175_1867" x1="969.5" y1="21" x2="969.5" y2="319.818" gradientUnits="userSpaceOnUse">
<stop stop-color="#F7DD43"/>
<stop offset="1" stop-color="#F7DD43" stop-opacity="0"/>
</linearGradient>
<linearGradient id="paint85_linear_175_1867" x1="969.5" y1="21" x2="969.5" y2="319.818" gradientUnits="userSpaceOnUse">
<stop stop-color="#F7DD43"/>
<stop offset="1" stop-color="#F7DD43" stop-opacity="0"/>
</linearGradient>
<linearGradient id="paint86_linear_175_1867" x1="969.5" y1="21" x2="969.5" y2="319.818" gradientUnits="userSpaceOnUse">
<stop stop-color="#F7DD43"/>
<stop offset="1" stop-color="#F7DD43" stop-opacity="0"/>
</linearGradient>
<linearGradient id="paint87_linear_175_1867" x1="969.5" y1="21" x2="969.5" y2="319.818" gradientUnits="userSpaceOnUse">
<stop stop-color="#F7DD43"/>
<stop offset="1" stop-color="#F7DD43" stop-opacity="0"/>
</linearGradient>
<linearGradient id="paint88_linear_175_1867" x1="969.5" y1="21" x2="969.5" y2="319.818" gradientUnits="userSpaceOnUse">
<stop stop-color="#F7DD43"/>
<stop offset="1" stop-color="#F7DD43" stop-opacity="0"/>
</linearGradient>
<linearGradient id="paint89_linear_175_1867" x1="969.5" y1="21" x2="969.5" y2="319.818" gradientUnits="userSpaceOnUse">
<stop stop-color="#F7DD43"/>
<stop offset="1" stop-color="#F7DD43" stop-opacity="0"/>
</linearGradient>
<linearGradient id="paint90_linear_175_1867" x1="969.5" y1="21" x2="969.5" y2="319.818" gradientUnits="userSpaceOnUse">
<stop stop-color="#F7DD43"/>
<stop offset="1" stop-color="#F7DD43" stop-opacity="0"/>
</linearGradient>
<linearGradient id="paint91_linear_175_1867" x1="969.5" y1="21" x2="969.5" y2="319.818" gradientUnits="userSpaceOnUse">
<stop stop-color="#F7DD43"/>
<stop offset="1" stop-color="#F7DD43" stop-opacity="0"/>
</linearGradient>
<linearGradient id="paint92_linear_175_1867" x1="969.5" y1="21" x2="969.5" y2="319.818" gradientUnits="userSpaceOnUse">
<stop stop-color="#F7DD43"/>
<stop offset="1" stop-color="#F7DD43" stop-opacity="0"/>
</linearGradient>
<linearGradient id="paint93_linear_175_1867" x1="969.5" y1="21" x2="969.5" y2="319.818" gradientUnits="userSpaceOnUse">
<stop stop-color="#F7DD43"/>
<stop offset="1" stop-color="#F7DD43" stop-opacity="0"/>
</linearGradient>
<clipPath id="clip0_175_1867">
<rect width="1024" height="753" fill="white"/>
</clipPath>
</defs>
</svg>
